<?xml version="1.0" encoding="iso-8859-1"?>
<!-- Uploaded to: SVG Repo, www.svgrepo.com, Generator: SVG Repo Mixer Tools -->
<svg fill="#000000" version="1.1" id="Layer_1" xmlns="http://www.w3.org/2000/svg" xmlns:xlink="http://www.w3.org/1999/xlink" 
	 viewBox="0 0 512 512" xml:space="preserve">
<g>
	<g>
		<g>
			<path d="M479.66,343.662c-0.752-59.141-24.357-114.625-66.445-156.223c-37.124-36.675-84.874-58.837-136.229-63.591
				c1.261-2.843,1.969-5.987,1.969-9.299c0-12.678-10.277-22.954-22.954-22.954c-12.678,0-22.954,10.277-22.954,22.954
				c0,3.311,0.706,6.455,1.969,9.299c-51.355,4.755-99.104,26.917-136.229,63.591c-42.089,41.597-65.693,97.081-66.445,156.223
				l-0.199,15.872h447.718L479.66,343.662z M108.711,305.721l-30.365-7.816c0.763-2.957,19.362-72.641,83.111-100.394l12.518,28.745
				C124.092,247.969,108.857,305.146,108.711,305.721z"/>
			<rect x="0" y="389.058" width="512" height="31.347"/>
		</g>
	</g>
</g>
</svg>